<svg width="28" height="28" viewBox="0 0 28 28" fill="none" xmlns="http://www.w3.org/2000/svg">
<path d="M12.8279 3.3448H5.43547C2.98583 3.3448 1 5.33056 1 7.78012V22.5647C1 25.0142 2.98583 27 5.43547 27H20.2203C22.67 27 24.6558 25.0142 24.6558 22.5647L24.6558 15.1724M8.39244 19.6077L13.7717 18.5238C14.0572 18.4663 14.3194 18.3257 14.5254 18.1196L26.5672 6.07151C27.1446 5.49387 27.1442 4.55754 26.5664 3.98038L24.0155 1.43243C23.4379 0.855513 22.502 0.855906 21.9249 1.43331L9.88173 13.4827C9.6762 13.6883 9.53586 13.95 9.47827 14.2349L8.39244 19.6077Z" stroke="#07C400" stroke-width="2" stroke-linecap="round" stroke-linejoin="round"/>
</svg>
