<svg width="23" height="26" viewBox="0 0 23 26" fill="none" xmlns="http://www.w3.org/2000/svg">
<path d="M1 5.23529H22M8.875 19.3529V10.8824M14.125 19.3529V10.8824M16.75 25H6.25C4.80025 25 3.625 23.7359 3.625 22.1765V6.64706C3.625 5.86736 4.21263 5.23529 4.9375 5.23529H18.0625C18.7874 5.23529 19.375 5.86736 19.375 6.64706V22.1765C19.375 23.7359 18.1997 25 16.75 25ZM8.875 5.23529H14.125C14.8499 5.23529 15.4375 4.60323 15.4375 3.82353V2.41176C15.4375 1.63207 14.8499 1 14.125 1H8.875C8.15013 1 7.5625 1.63207 7.5625 2.41176V3.82353C7.5625 4.60323 8.15013 5.23529 8.875 5.23529Z" stroke="#FF0000" stroke-width="2" stroke-linecap="round" stroke-linejoin="round"/>
</svg>
